<svg xmlns="http://www.w3.org/2000/svg" width="95" height="25" viewBox="0 0 95 25">
  <g id="_2020" data-name="2020" transform="translate(-445 -240)">
    <path id="패스_7600" data-name="패스 7600" d="M1.824-16.33A5.961,5.961,0,0,1,3.99-18.468a6.29,6.29,0,0,1,3.049-.684,7.642,7.642,0,0,1,2.109.285,4.487,4.487,0,0,1,1.724.912,4.49,4.49,0,0,1,1.154,1.568,5.487,5.487,0,0,1,.428,2.28,6.893,6.893,0,0,1-.228,1.81,7.347,7.347,0,0,1-.67,1.639,10.67,10.67,0,0,1-1.112,1.61q-.67.812-1.582,1.724L7.609-6.07Q6.9-5.358,6.17-4.6t-1.382,1.5q-.656.741-1.112,1.368H6.384q2.052,0,3.634-.071T12.8-1.966a4.908,4.908,0,0,0-.142,1.054A4.107,4.107,0,0,0,12.8.057Q11.258,0,9.747,0H3.634Q2.109,0,.57.057V-.285q2-1.967,3.463-3.463T6.527-6.441A22.42,22.42,0,0,0,8.194-8.607a11.634,11.634,0,0,0,1.012-1.838,7.087,7.087,0,0,0,.5-1.71,12.018,12.018,0,0,0,.128-1.81,4.414,4.414,0,0,0-.955-3.121A2.983,2.983,0,0,0,6.641-18.1a3.47,3.47,0,0,0-1.568.328,3.646,3.646,0,0,0-1.083.8,3.549,3.549,0,0,0-.655,1.012,5.145,5.145,0,0,0-.314.969l-.2.057ZM17.1-9.348a20.169,20.169,0,0,1,.342-3.8,9.62,9.62,0,0,1,1.126-3.107,6.02,6.02,0,0,1,2.066-2.109,5.905,5.905,0,0,1,3.135-.784,6.4,6.4,0,0,1,3.349.784,5.639,5.639,0,0,1,2.038,2.109,9.127,9.127,0,0,1,1.012,3.107,25.339,25.339,0,0,1,.271,3.8,16.911,16.911,0,0,1-.4,3.734,10.341,10.341,0,0,1-1.211,3.107A6.188,6.188,0,0,1,26.761-.4a5.61,5.61,0,0,1-2.993.77A6.7,6.7,0,0,1,20.42-.37a5.325,5.325,0,0,1-2.038-2.066,9.127,9.127,0,0,1-1.012-3.107A25.339,25.339,0,0,1,17.1-9.348Zm2.337,0a26.931,26.931,0,0,0,.214,3.506,10.721,10.721,0,0,0,.727,2.821,4.879,4.879,0,0,0,1.34,1.881,3.111,3.111,0,0,0,2.052.684,3.111,3.111,0,0,0,2.052-.684,4.879,4.879,0,0,0,1.34-1.881,10.721,10.721,0,0,0,.727-2.821A26.931,26.931,0,0,0,28.1-9.348a26.931,26.931,0,0,0-.214-3.505,10.721,10.721,0,0,0-.727-2.821,4.879,4.879,0,0,0-1.34-1.881,3.111,3.111,0,0,0-2.052-.684,3.3,3.3,0,0,0-2.052.627,4.422,4.422,0,0,0-1.34,1.8,10.323,10.323,0,0,0-.727,2.807A28.492,28.492,0,0,0,19.437-9.348ZM33.516-16.33a5.961,5.961,0,0,1,2.166-2.138,6.29,6.29,0,0,1,3.049-.684,7.642,7.642,0,0,1,2.109.285,4.487,4.487,0,0,1,1.724.912,4.49,4.49,0,0,1,1.154,1.568,5.487,5.487,0,0,1,.428,2.28,6.893,6.893,0,0,1-.228,1.81,7.347,7.347,0,0,1-.67,1.639,10.67,10.67,0,0,1-1.111,1.61q-.67.812-1.582,1.724L39.3-6.07q-.712.712-1.439,1.468t-1.382,1.5q-.656.741-1.111,1.368h2.708q2.052,0,3.634-.071t2.779-.157a4.908,4.908,0,0,0-.142,1.054,4.107,4.107,0,0,0,.142.969Q42.95,0,41.439,0H35.326Q33.8,0,32.262.057V-.285q1.995-1.967,3.463-3.463t2.494-2.693a22.42,22.42,0,0,0,1.667-2.166A11.634,11.634,0,0,0,40.9-10.445a7.087,7.087,0,0,0,.5-1.71,12.018,12.018,0,0,0,.128-1.81,4.414,4.414,0,0,0-.955-3.121A2.983,2.983,0,0,0,38.333-18.1a3.47,3.47,0,0,0-1.568.328,3.646,3.646,0,0,0-1.083.8,3.549,3.549,0,0,0-.655,1.012,5.145,5.145,0,0,0-.314.969l-.2.057Zm17.556.884a2.465,2.465,0,0,0-.855-.912v-.2q1.625-.656,3.32-1.439t3.178-1.525l.2.142q-.114,1.881-.171,3.719t-.057,3.719v4.759q0,1.881.057,3.691T56.914.057A4.07,4.07,0,0,0,56.245,0H54.905a4.07,4.07,0,0,0-.67.057q.143-1.767.185-3.563t.043-3.677V-17.328Z" transform="translate(446.43 261.576)" fill="#fff"/>
    <path id="패스_7599" data-name="패스 7599" d="M19.694-9.69a9.092,9.092,0,0,0-.7-3.548,9.2,9.2,0,0,0-1.909-2.907,9.052,9.052,0,0,0-2.864-1.966,8.683,8.683,0,0,0-3.534-.727,8.683,8.683,0,0,0-3.534.727,9.052,9.052,0,0,0-2.864,1.966A9.2,9.2,0,0,0,2.38-13.238a9.092,9.092,0,0,0-.7,3.548,9.092,9.092,0,0,0,.7,3.548A9.2,9.2,0,0,0,4.289-3.235,9.052,9.052,0,0,0,7.153-1.268a8.683,8.683,0,0,0,3.534.727,8.683,8.683,0,0,0,3.534-.727,9.052,9.052,0,0,0,2.864-1.967A9.2,9.2,0,0,0,19-6.142,9.092,9.092,0,0,0,19.694-9.69ZM.485-9.69a10.008,10.008,0,0,1,.8-3.976,10.231,10.231,0,0,1,2.18-3.249A10.231,10.231,0,0,1,6.712-19.1a10.008,10.008,0,0,1,3.976-.8,10.008,10.008,0,0,1,3.976.8,10.231,10.231,0,0,1,3.249,2.18,10.231,10.231,0,0,1,2.18,3.249,10.008,10.008,0,0,1,.8,3.976,9.977,9.977,0,0,1-.8,3.99,10.1,10.1,0,0,1-2.18,3.221A9.964,9.964,0,0,1,14.663-.342a10.329,10.329,0,0,1-3.976.769A10.329,10.329,0,0,1,6.712-.342,9.964,9.964,0,0,1,3.463-2.479,10.1,10.1,0,0,1,1.283-5.7,9.977,9.977,0,0,1,.485-9.69Zm3.9.057a7.463,7.463,0,0,1,.542-2.95,5.928,5.928,0,0,1,1.5-2.123,6.294,6.294,0,0,1,2.237-1.283,8.6,8.6,0,0,1,2.736-.427,11.588,11.588,0,0,1,2.394.214,5.455,5.455,0,0,1,1.625.584,3.575,3.575,0,0,0-.37,1.425l-.142.057q-.2-.171-.485-.427a3.743,3.743,0,0,0-.7-.485,5.248,5.248,0,0,0-.955-.4,4.279,4.279,0,0,0-1.283-.171,6.97,6.97,0,0,0-1.938.271,4.105,4.105,0,0,0-1.667.94,4.715,4.715,0,0,0-1.168,1.838A8.477,8.477,0,0,0,6.27-9.6a7.216,7.216,0,0,0,.342,2.266,5.163,5.163,0,0,0,1,1.8A4.577,4.577,0,0,0,9.22-4.36a5.284,5.284,0,0,0,2.18.428,4.387,4.387,0,0,0,1.168-.157,7.085,7.085,0,0,0,1.069-.385,6.885,6.885,0,0,0,.912-.5,5.792,5.792,0,0,0,.7-.527l.171.057a1.819,1.819,0,0,0-.142.584q-.029.328-.028.556a10.633,10.633,0,0,1-1.682.755,7.071,7.071,0,0,1-2.479.413,7.711,7.711,0,0,1-2.708-.456A6,6,0,0,1,6.27-4.9,6.062,6.062,0,0,1,4.888-6.954,6.9,6.9,0,0,1,4.389-9.633Z" transform="translate(517 261.732)" fill="#fff"/>
    <rect id="사각형_55061" data-name="사각형 55061" width="95" height="25" transform="translate(445 240)" fill="none"/>
  </g>
</svg>
