<?xml version="1.0" encoding="utf-8"?>
<!-- Generator: Adobe Illustrator 24.3.0, SVG Export Plug-In . SVG Version: 6.00 Build 0)  -->
<svg version="1.1" id="레이어_1" xmlns="http://www.w3.org/2000/svg" xmlns:xlink="http://www.w3.org/1999/xlink" x="0px"
	 y="0px" viewBox="0 0 274 133" style="enable-background:new 0 0 274 133;" xml:space="preserve">
<g id="logo_LU42" transform="translate(2215 34)">
	<path id="패스_2066" d="M-2027,60.8v-0.7l-6.1-5.4v-8.9h9.7l3.2-13.1l-0.9-0.4l-4.6,4.1h-7.3V1h-22.2l-30.5,44.7h29.5l3.4-5h0.8
		v14l-6.1,5.4v0.7C-2058.1,60.8-2027,60.8-2027,60.8z M-2051.9,36.3h-18.3l18.1-26.6h0.2V36.3z"/>
	<path id="패스_2067" d="M-2085.7,60.8v-0.7l-6.1-5.4V5.4l4.4-3.9V1h-27.6v0.5l4.4,3.9v26.1c0,7.1-2.2,18.5-11.9,18.5
		c-2.7,0-5.3-1.2-6.9-3.3c-2.6-3.5-2.4-7.5-2.4-11.7V5.4l4.4-3.9V1h-27.5v0.5l4.4,3.9v34.1c0,6.5,0.3,11.7,5,16.6
		c4,4,9.5,6.2,15.2,6.1c5.8,0,9.7-1.5,12.5-3.6c3.4-2.6,5.6-6.5,6.2-10.7h1v12.9C-2110.6,60.8-2085.7,60.8-2085.7,60.8z"/>
	<path id="패스_2068" d="M-1961.3,44.8l-6.4,5.7h-27.7V50l4.2-3.8c6.8-6.2,9.5-9.2,13.4-13.1c4.3-4.5,8.3-9.4,8.6-17.2
		c0.5-11.7-7.8-16.9-18.2-16.9c-6.2,0-17.2,3-24,6.7l-4.1,16.4c6.2-5.7,12.7-11,18.9-11c2.9,0,7.1,0.5,7.1,5.9
		c0,4.9-4.1,10.4-10.1,18.3l-5.9,7.5l-14.6,18h54.6l4.9-15.4L-1961.3,44.8z"/>
	<path id="패스_2069" d="M-2211.5,1v0.5l4.4,3.9v49.2l-6.1,5.4v0.7h52.5l4.8-15.2l-0.7-0.6l-6.3,5.6h-29V50l4.6-4.1V5.4l4.4-3.9V1
		H-2211.5z"/>
</g>
</svg>
