<!-- Generator: Adobe Illustrator 24.3.0, SVG Export Plug-In  -->
<svg version="1.1" xmlns="http://www.w3.org/2000/svg" xmlns:xlink="http://www.w3.org/1999/xlink" x="0px" y="0px" width="1369px" height="208px" viewBox="0 0 1369 208" style="overflow:visible;enable-background:new 0 0 1369 208;" xml:space="preserve">
    <g transform="translate(0 2.234)">
        <path d="M1235.8,133.9c1.1,35.6,31.4,52.8,55.4,52.5c21.9,0,39.6-10.8,48.8-29.3h20.3c-6.6,15.3-16.6,26.9-28.8,34.6c-12.1,7.7-26.1,11.7-40.4,11.6c-49.3,0-74.9-39.3-74.9-74.7c0-41.7,32.2-75.2,74.7-75.2c20.1,0,38.5,7.1,52,20.1c16.3,15.7,24.4,38,22.2,60.4L1235.8,133.9z M1345.8,118.3c-1.3-24.8-25.3-49.1-54.6-48.3c-30.6,0-53.3,22.4-55.2,48.3H1345.8z"/>
    </g>
</svg>