<!-- Generator: Adobe Illustrator 24.3.0, SVG Export Plug-In  -->
<svg version="1.1" xmlns="http://www.w3.org/2000/svg" xmlns:xlink="http://www.w3.org/1999/xlink" x="0px" y="0px" width="1369px" height="208px" viewBox="0 0 1369 208" style="overflow:visible;enable-background:new 0 0 1369 208;" xml:space="preserve">
    <g transform="translate(0 2.234)">
        <path d="M1199.1,151.3c-9.6,31.1-38.4,52.3-71,52c-48,0-76.3-36.9-76.3-74.9c0-42,31.9-74.9,75-74.9c31.9,0,62.5,19,72.3,53h-20.1c-9-24-31.4-35.1-51.5-35.1c-16.6,0-28.2,5-40.1,16.1c-9.5,9.2-16.1,24.5-16.1,40.9c0,33.5,25.3,56.7,55.9,56.7c27.2-0.3,45.4-16.6,51.5-33.8L1199.1,151.3z"/>
    </g>
</svg>