<!-- Generator: Adobe Illustrator 24.3.0, SVG Export Plug-In  -->
<svg version="1.1" xmlns="http://www.w3.org/2000/svg" xmlns:xlink="http://www.w3.org/1999/xlink" x="0px" y="0px" width="1369px" height="208px" viewBox="0 0 1369 208" style="overflow:visible;enable-background:new 0 0 1369 208;" xml:space="preserve">
    <g transform="translate(0 2.234)">
        <path d="M857.5,199.3H838V170c-11.1,21.4-32.7,33.2-58,33.2c-46.2,0-73.6-35.9-73.6-74.9c0-41.7,30.3-74.9,73.6-74.9c30.3,0,51.2,17.7,58,33.8V57.3h19.5V199.3z M725.6,128.6c0.3,25.6,17.9,56.5,57,56.5c25.1,0,43.5-14.5,51.2-34.6c3.2-7,4.8-14.7,4.8-22.4c0.3-7.8-1.3-15.6-4.5-22.7c-7.9-19.5-26.9-34-52-34c-32.7,0-56.5,25.3-56.5,57L725.6,128.6z"/>
    </g>
</svg>