<!-- Generator: Adobe Illustrator 24.3.0, SVG Export Plug-In  -->
<svg version="1.1" xmlns="http://www.w3.org/2000/svg" xmlns:xlink="http://www.w3.org/1999/xlink" x="0px" y="0px" width="2563px"
	 height="382px" viewBox="0 0 2563 382" style="overflow:visible;enable-background:new 0 0 2563 382;" xml:space="preserve">
<style type="text/css">
	.st0{fill:none;}
	.st1{fill:#FFFFFF;}
</style>
<defs>
</defs>
<path d="M3,191.8C3,79.8,90.5,2.7,193.9,2.7c107.3,0,190.9,81.6,190.9,188.2c0,106.6-83.1,188.2-190.9,188.2C85.6,379,3,296,3,192.3
	V191.8z M44,190.8c0,85.5,64.8,152.3,150.3,152.3c86.6,0,149.9-69.3,149.9-152.3c0-83-63.3-152.3-150.3-152.3
	C107.8,38.5,44,106.3,44,190.4V190.8z"/>
<path d="M437.8,106.5h34.6V150c19.3-39.6,53.9-49.9,85.1-50.9v36.1H554c-51.4,0-80.1,32.2-80.1,92.5v144.9h-36.1V106.5z"/>
<path d="M846.4,372.6h-35.1v-54.5C792.4,353,756.8,380,701.4,380c-85.1,0-137.5-65.8-137.5-140c0-78.6,57.4-139,137-139
	c58.4,0,96.9,33.4,108.8,60.9V9.1h36.6L846.4,372.6z M600.1,240.5c0.5,53.1,37.6,105.6,106.8,105.6c29.7,0,56.9-11.8,75.7-31
	c19.9-20.2,30.7-47.8,29.7-76.1c0-30-11.4-55.5-30.7-74.2c-18.8-19.2-45.5-30.5-75.2-30.5c-61.3,0-106.3,46.2-106.3,105.6
	L600.1,240.5z"/>
<path d="M917,9.1h36.6v50.6H917V9.1z M917,108.3h36.6v264.3H917V108.3z"/>
<path d="M1023.7,106.5h34.6c0,14.8,0,29.7-0.5,47.5c15.3-34.6,51.4-55.9,98.9-54.9c82.6,1,111.8,57.4,111.8,122.1v151.4h-36.1V228.7
	c0-57.4-25.7-96.4-85.5-95.5c-54.9,0.5-86.5,33.6-86.5,89v150.3h-36.6V106.5z"/>
<path d="M1604.4,372.6h-36.6v-54.9c-20.8,40.1-61.3,62.3-108.8,62.3c-86.6,0-138-67.3-138-140.5c0-78.1,56.9-140.5,138-140.5
	c56.9,0,95.9,33.2,108.8,63.3v-55.9h36.6V372.6z M1357.2,240c0.5,48,33.6,105.9,106.8,105.9c47,0,81.6-27.2,95.9-64.8
	c5.9-13.2,9-27.5,8.9-42c0.5-14.6-2.4-29.2-8.4-42.5c-14.8-36.6-50.4-63.8-97.4-63.8c-61.4,0-105.8,47.5-105.8,106.8L1357.2,240z"/>
<path d="M1673.7,106.5h34.6c0,14.8,0,29.7-0.5,47.5c15.3-34.6,51.4-55.9,98.9-54.9c82.6,1,111.8,57.4,111.8,122.1v151.4h-36.1V228.7
	c0-57.4-25.7-96.4-85.5-95.5c-54.9,0.5-86.5,33.6-86.5,89v150.3h-36.6L1673.7,106.5z"/>
<path d="M2244.6,282.6c-17.3,56.4-69.2,97.4-133,97.4c-90,0-142.9-69.2-142.9-140.5c0-78.6,59.8-140.5,140.5-140.5
	c59.8,0,117.2,35.6,135.5,99.4H2207c-16.8-45-58.8-65.8-96.4-65.8c-31.2,0-52.9,9.4-75.2,30.2c-17.8,17.3-30.2,46-30.2,76.7
	c0,62.8,47.5,106.4,104.8,106.4c50.9-0.5,85.1-31.2,96.4-63.3L2244.6,282.6z"/>
<path d="M2313.4,249.9c2,66.8,58.8,98.9,103.8,98.4c41.1,0,74.2-20.3,91.5-54.9h38.1c-12.4,28.7-31.2,50.4-53.9,64.8
	c-22.3,14.3-48.5,21.8-75.7,21.8c-92.5,0-140.5-73.7-140.5-140c0-78.2,60.3-141,140-141c37.6,0,72.2,13.4,97.4,37.6
	c30.7,29.7,45.5,70.7,41.5,113.3H2313.4z M2519.6,220.8c-2.5-46.5-47.5-92-102.4-90.5c-57.4,0-99.9,42-103.4,90.5H2519.6z"/>

</svg>
