<!-- Generator: Adobe Illustrator 24.3.0, SVG Export Plug-In  -->
<svg version="1.1" xmlns="http://www.w3.org/2000/svg" xmlns:xlink="http://www.w3.org/1999/xlink" x="0px" y="0px" width="1369px" height="208px" viewBox="0 0 1369 208" style="overflow:visible;enable-background:new 0 0 1369 208;" xml:space="preserve">
    <g transform="translate(0 2.234)">
        <path d="M453,199.3h-18.7v-29.1c-10,18.6-29,33-58.6,33c-45.4,0-73.4-35.1-73.4-74.7c0-41.9,30.6-74.2,73.1-74.2c31.1,0,51.7,17.8,58.1,32.5V5.4H453L453,199.3z M321.6,128.8c0.3,28.3,20.1,56.4,57,56.4c15.1,0.1,29.7-5.8,40.4-16.5c10.6-10.8,16.4-25.5,15.8-40.6c0-16-6.1-29.6-16.4-39.6c-10-10.2-24.3-16.3-40.1-16.3c-32.7,0-56.7,24.6-56.7,56.4L321.6,128.8z"/>
    </g>
</svg>